<svg width="149" height="52" viewBox="0 0 149 52" fill="none" xmlns="http://www.w3.org/2000/svg">
<path d="M19.0703 17.5664C19.9531 17.4727 20.5234 17.3164 20.7812 17.0977C21.0469 16.8711 21.1797 16.3047 21.1797 15.3984V4.72266C21.1797 3.87109 21.0508 3.31641 20.793 3.05859C20.5352 2.79297 19.9609 2.62891 19.0703 2.56641V2.12109H25.8555V2.56641C24.9727 2.61328 24.3789 2.75781 24.0742 3C23.7773 3.24219 23.6289 3.76172 23.6289 4.55859V16.0898C23.6289 16.3555 23.6719 16.5664 23.7578 16.7227C23.8516 16.8711 24.0508 16.9648 24.3555 17.0039C24.5352 17.0273 24.7227 17.043 24.918 17.0508C25.1211 17.0586 25.4961 17.0625 26.043 17.0625C28.1758 17.0625 29.6172 16.8867 30.3672 16.5352C31.1172 16.1836 31.8438 15.2852 32.5469 13.8398H33.1562L31.9844 18H19.0703V17.5664ZM35.4414 2.87109C35.4414 2.53516 35.5586 2.24609 35.793 2.00391C36.0273 1.76172 36.3164 1.64062 36.6602 1.64062C36.9961 1.64062 37.2812 1.76172 37.5156 2.00391C37.7578 2.23828 37.8789 2.52734 37.8789 2.87109C37.8789 3.20703 37.7578 3.49609 37.5156 3.73828C37.2812 3.97266 36.9961 4.08984 36.6602 4.08984C36.3164 4.08984 36.0273 3.97266 35.793 3.73828C35.5586 3.49609 35.4414 3.20703 35.4414 2.87109ZM33.9414 17.6719C34.7773 17.5938 35.3047 17.4531 35.5234 17.25C35.7422 17.0391 35.8516 16.4766 35.8516 15.5625V9.97266C35.8516 9.46484 35.8164 9.11328 35.7461 8.91797C35.6289 8.59766 35.3828 8.4375 35.0078 8.4375C34.9219 8.4375 34.8359 8.44531 34.75 8.46094C34.6719 8.47656 34.4375 8.53906 34.0469 8.64844V8.28516L34.5508 8.12109C35.918 7.67578 36.8711 7.33984 37.4102 7.11328C37.6289 7.01953 37.7695 6.97266 37.832 6.97266C37.8477 7.02734 37.8555 7.08594 37.8555 7.14844V15.5625C37.8555 16.4531 37.9609 17.0117 38.1719 17.2383C38.3906 17.4648 38.8789 17.6094 39.6367 17.6719V18H33.9414V17.6719ZM45.6484 7.00781C46.75 7.00781 47.7148 7.39062 48.543 8.15625C49.3711 8.91406 49.7852 9.99219 49.7852 11.3906H42.3438C42.4219 13.2031 42.832 14.5234 43.5742 15.3516C44.3164 16.1797 45.1953 16.5938 46.2109 16.5938C47.0312 16.5938 47.7227 16.3789 48.2852 15.9492C48.8477 15.5195 49.3672 14.9102 49.8438 14.1211L50.2539 14.2617C49.9336 15.2539 49.332 16.1719 48.4492 17.0156C47.5742 17.8594 46.5 18.2812 45.2266 18.2812C43.7578 18.2812 42.6211 17.7266 41.8164 16.6172C41.0195 15.5078 40.6211 14.2305 40.6211 12.7852C40.6211 11.2148 41.0859 9.85938 42.0156 8.71875C42.9453 7.57812 44.1562 7.00781 45.6484 7.00781ZM44.9688 7.86328C44.0781 7.86328 43.3984 8.25781 42.9297 9.04688C42.6797 9.46875 42.5 10 42.3906 10.6406H47.3359C47.25 9.85938 47.1016 9.27734 46.8906 8.89453C46.5078 8.20703 45.8672 7.86328 44.9688 7.86328ZM57.0859 17.5664C58.0781 17.4648 58.7148 17.2422 58.9961 16.8984C59.2773 16.5469 59.418 15.7383 59.418 14.4727V3.89062L59.0898 3.50391C58.7383 3.08984 58.4375 2.83594 58.1875 2.74219C57.9453 2.64062 57.5781 2.58203 57.0859 2.56641V2.12109H61.1992L70.4453 13.6758V5.64844C70.4453 4.32812 70.25 3.46875 69.8594 3.07031C69.6016 2.8125 69.0312 2.64453 68.1484 2.56641V2.12109H73.7852V2.56641C72.8711 2.66016 72.2617 2.88281 71.957 3.23438C71.6523 3.58594 71.5 4.39063 71.5 5.64844V18.2812H71.0898L60.4727 5.12109V14.4727C60.4727 15.7852 60.6641 16.6406 61.0469 17.0391C61.2969 17.2969 61.8555 17.4727 62.7227 17.5664V18H57.0859V17.5664ZM76.1289 2.87109C76.1289 2.53516 76.2461 2.24609 76.4805 2.00391C76.7148 1.76172 77.0039 1.64062 77.3477 1.64062C77.6836 1.64062 77.9688 1.76172 78.2031 2.00391C78.4453 2.23828 78.5664 2.52734 78.5664 2.87109C78.5664 3.20703 78.4453 3.49609 78.2031 3.73828C77.9688 3.97266 77.6836 4.08984 77.3477 4.08984C77.0039 4.08984 76.7148 3.97266 76.4805 3.73828C76.2461 3.49609 76.1289 3.20703 76.1289 2.87109ZM74.6289 17.6719C75.4648 17.5938 75.9922 17.4531 76.2109 17.25C76.4297 17.0391 76.5391 16.4766 76.5391 15.5625V9.97266C76.5391 9.46484 76.5039 9.11328 76.4336 8.91797C76.3164 8.59766 76.0703 8.4375 75.6953 8.4375C75.6094 8.4375 75.5234 8.44531 75.4375 8.46094C75.3594 8.47656 75.125 8.53906 74.7344 8.64844V8.28516L75.2383 8.12109C76.6055 7.67578 77.5586 7.33984 78.0977 7.11328C78.3164 7.01953 78.457 6.97266 78.5195 6.97266C78.5352 7.02734 78.543 7.08594 78.543 7.14844V15.5625C78.543 16.4531 78.6484 17.0117 78.8594 17.2383C79.0781 17.4648 79.5664 17.6094 80.3242 17.6719V18H74.6289V17.6719ZM86.3359 7.00781C87.4375 7.00781 88.4023 7.39062 89.2305 8.15625C90.0586 8.91406 90.4727 9.99219 90.4727 11.3906H83.0312C83.1094 13.2031 83.5195 14.5234 84.2617 15.3516C85.0039 16.1797 85.8828 16.5938 86.8984 16.5938C87.7188 16.5938 88.4102 16.3789 88.9727 15.9492C89.5352 15.5195 90.0547 14.9102 90.5312 14.1211L90.9414 14.2617C90.6211 15.2539 90.0195 16.1719 89.1367 17.0156C88.2617 17.8594 87.1875 18.2812 85.9141 18.2812C84.4453 18.2812 83.3086 17.7266 82.5039 16.6172C81.707 15.5078 81.3086 14.2305 81.3086 12.7852C81.3086 11.2148 81.7734 9.85938 82.7031 8.71875C83.6328 7.57812 84.8438 7.00781 86.3359 7.00781ZM85.6562 7.86328C84.7656 7.86328 84.0859 8.25781 83.6172 9.04688C83.3672 9.46875 83.1875 10 83.0781 10.6406H88.0234C87.9375 9.85938 87.7891 9.27734 87.5781 8.89453C87.1953 8.20703 86.5547 7.86328 85.6562 7.86328ZM91.9961 17.6719C92.7227 17.6016 93.2148 17.457 93.4727 17.2383C93.7305 17.0117 93.8594 16.5742 93.8594 15.9258V4.47656C93.8594 3.96094 93.8164 3.60547 93.7305 3.41016C93.5742 3.08203 93.2578 2.91797 92.7812 2.91797C92.6719 2.91797 92.5508 2.92969 92.418 2.95312C92.293 2.97656 92.1328 3.01172 91.9375 3.05859V2.67188C92.9922 2.39062 94.2617 2.01562 95.7461 1.54688C95.8008 1.54688 95.832 1.57031 95.8398 1.61719C95.8555 1.66406 95.8633 1.76563 95.8633 1.92188V15.9727C95.8633 16.6523 95.9805 17.0938 96.2148 17.2969C96.4492 17.4922 96.9336 17.6172 97.668 17.6719V18H91.9961V17.6719ZM99.4258 14.3086H99.8125C99.9922 15.1992 100.234 15.8828 100.539 16.3594C101.086 17.2344 101.887 17.6719 102.941 17.6719C103.527 17.6719 103.988 17.5117 104.324 17.1914C104.668 16.8633 104.84 16.4414 104.84 15.9258C104.84 15.5977 104.742 15.2812 104.547 14.9766C104.352 14.6719 104.008 14.375 103.516 14.0859L102.203 13.3359C101.242 12.8203 100.535 12.3008 100.082 11.7773C99.6289 11.2539 99.4023 10.6367 99.4023 9.92578C99.4023 9.05078 99.7148 8.33203 100.34 7.76953C100.965 7.20703 101.75 6.92578 102.695 6.92578C103.109 6.92578 103.562 7.00391 104.055 7.16016C104.555 7.31641 104.836 7.39453 104.898 7.39453C105.039 7.39453 105.141 7.375 105.203 7.33594C105.266 7.29688 105.32 7.23438 105.367 7.14844H105.648L105.73 10.418H105.367C105.211 9.66016 105 9.07031 104.734 8.64844C104.25 7.86719 103.551 7.47656 102.637 7.47656C102.09 7.47656 101.66 7.64453 101.348 7.98047C101.035 8.31641 100.879 8.71094 100.879 9.16406C100.879 9.88281 101.418 10.5234 102.496 11.0859L104.043 11.918C105.707 12.8242 106.539 13.8789 106.539 15.082C106.539 16.0039 106.191 16.7578 105.496 17.3438C104.809 17.9297 103.906 18.2227 102.789 18.2227C102.32 18.2227 101.789 18.1445 101.195 17.9883C100.602 17.832 100.25 17.7539 100.141 17.7539C100.047 17.7539 99.9648 17.7891 99.8945 17.8594C99.8242 17.9219 99.7695 18 99.7305 18.0938H99.4258V14.3086ZM113.031 7.00781C114.133 7.00781 115.098 7.39062 115.926 8.15625C116.754 8.91406 117.168 9.99219 117.168 11.3906H109.727C109.805 13.2031 110.215 14.5234 110.957 15.3516C111.699 16.1797 112.578 16.5938 113.594 16.5938C114.414 16.5938 115.105 16.3789 115.668 15.9492C116.23 15.5195 116.75 14.9102 117.227 14.1211L117.637 14.2617C117.316 15.2539 116.715 16.1719 115.832 17.0156C114.957 17.8594 113.883 18.2812 112.609 18.2812C111.141 18.2812 110.004 17.7266 109.199 16.6172C108.402 15.5078 108.004 14.2305 108.004 12.7852C108.004 11.2148 108.469 9.85938 109.398 8.71875C110.328 7.57812 111.539 7.00781 113.031 7.00781ZM112.352 7.86328C111.461 7.86328 110.781 8.25781 110.312 9.04688C110.062 9.46875 109.883 10 109.773 10.6406H114.719C114.633 9.85938 114.484 9.27734 114.273 8.89453C113.891 8.20703 113.25 7.86328 112.352 7.86328ZM118.633 17.6719C119.188 17.6016 119.574 17.4648 119.793 17.2617C120.02 17.0508 120.133 16.5859 120.133 15.8672V9.92578C120.133 9.42578 120.086 9.07422 119.992 8.87109C119.844 8.57422 119.539 8.42578 119.078 8.42578C119.008 8.42578 118.934 8.42969 118.855 8.4375C118.785 8.44531 118.695 8.45703 118.586 8.47266V8.0625C118.906 7.96875 119.664 7.72656 120.859 7.33594L121.961 6.97266C122.016 6.97266 122.047 6.99219 122.055 7.03125C122.07 7.07031 122.078 7.125 122.078 7.19531V8.91797C122.797 8.24609 123.359 7.78516 123.766 7.53516C124.375 7.15234 125.008 6.96094 125.664 6.96094C126.195 6.96094 126.68 7.11328 127.117 7.41797C127.961 8.01172 128.383 9.07031 128.383 10.5938V16.0664C128.383 16.6289 128.496 17.0352 128.723 17.2852C128.949 17.5352 129.328 17.6641 129.859 17.6719V18H124.855V17.6719C125.426 17.5938 125.824 17.4375 126.051 17.2031C126.277 16.9609 126.391 16.4414 126.391 15.6445V10.6406C126.391 9.96875 126.266 9.41406 126.016 8.97656C125.766 8.53125 125.305 8.30859 124.633 8.30859C124.172 8.30859 123.703 8.46484 123.227 8.77734C122.961 8.95703 122.617 9.25391 122.195 9.66797V16.2305C122.195 16.793 122.32 17.1719 122.57 17.3672C122.82 17.5547 123.215 17.6562 123.754 17.6719V18H118.633V17.6719ZM0.695312 22.1211H14.2539L14.3828 26.1992H13.8086C13.5273 24.918 13.168 24.0859 12.7305 23.7031C12.3008 23.3125 11.3906 23.1172 10 23.1172H8.66406V35.3984C8.66406 36.3281 8.80859 36.9062 9.09766 37.1328C9.38672 37.3516 10.0195 37.4961 10.9961 37.5664V38H4V37.5664C5.01562 37.4883 5.64844 37.3203 5.89844 37.0625C6.14844 36.8047 6.27344 36.1562 6.27344 35.1172V23.1172H4.9375C3.60938 23.1172 2.70312 23.3086 2.21875 23.6914C1.74219 24.0742 1.38281 24.9102 1.14062 26.1992H0.554688L0.695312 22.1211ZM17.9102 30.0664C17.9102 32.5898 18.4062 34.457 19.3984 35.668C20.3906 36.8711 21.6094 37.4727 23.0547 37.4727C24.4688 37.4727 25.6758 36.8867 26.6758 35.7148C27.6836 34.5352 28.1875 32.6523 28.1875 30.0664C28.1875 27.4492 27.6797 25.5586 26.6641 24.3945C25.6484 23.2305 24.4453 22.6484 23.0547 22.6484C21.6172 22.6484 20.3984 23.2539 19.3984 24.4648C18.4062 25.668 17.9102 27.5352 17.9102 30.0664ZM15.1914 30.0664C15.1914 27.5039 15.9961 25.4492 17.6055 23.9023C19.082 22.4883 20.8984 21.7812 23.0547 21.7812C25.2188 21.7812 27.0391 22.4922 28.5156 23.9141C30.1172 25.4531 30.918 27.5039 30.918 30.0664C30.918 32.668 30.0898 34.7383 28.4336 36.2773C26.9492 37.6523 25.1562 38.3398 23.0547 38.3398C20.8047 38.3398 18.9375 37.5781 17.4531 36.0547C15.9453 34.5 15.1914 32.5039 15.1914 30.0664ZM35.2539 30.0664C35.2539 32.5898 35.75 34.457 36.7422 35.668C37.7344 36.8711 38.9531 37.4727 40.3984 37.4727C41.8125 37.4727 43.0195 36.8867 44.0195 35.7148C45.0273 34.5352 45.5312 32.6523 45.5312 30.0664C45.5312 27.4492 45.0234 25.5586 44.0078 24.3945C42.9922 23.2305 41.7891 22.6484 40.3984 22.6484C38.9609 22.6484 37.7422 23.2539 36.7422 24.4648C35.75 25.668 35.2539 27.5352 35.2539 30.0664ZM32.5352 30.0664C32.5352 27.5039 33.3398 25.4492 34.9492 23.9023C36.4258 22.4883 38.2422 21.7812 40.3984 21.7812C42.5625 21.7812 44.3828 22.4922 45.8594 23.9141C47.4609 25.4531 48.2617 27.5039 48.2617 30.0664C48.2617 32.668 47.4336 34.7383 45.7773 36.2773C44.293 37.6523 42.5 38.3398 40.3984 38.3398C38.1484 38.3398 36.2812 37.5781 34.7969 36.0547C33.2891 34.5 32.5352 32.5039 32.5352 30.0664ZM49.4336 37.5664C50.3164 37.4727 50.8867 37.3164 51.1445 37.0977C51.4102 36.8711 51.543 36.3047 51.543 35.3984V24.7227C51.543 23.8711 51.4141 23.3164 51.1562 23.0586C50.8984 22.793 50.3242 22.6289 49.4336 22.5664V22.1211H56.2188V22.5664C55.3359 22.6133 54.7422 22.7578 54.4375 23C54.1406 23.2422 53.9922 23.7617 53.9922 24.5586V36.0898C53.9922 36.3555 54.0352 36.5664 54.1211 36.7227C54.2148 36.8711 54.4141 36.9648 54.7188 37.0039C54.8984 37.0273 55.0859 37.043 55.2812 37.0508C55.4844 37.0586 55.8594 37.0625 56.4062 37.0625C58.5391 37.0625 59.9805 36.8867 60.7305 36.5352C61.4805 36.1836 62.207 35.2852 62.9102 33.8398H63.5195L62.3477 38H49.4336V37.5664ZM68.043 22.1211V22.5664C67.5664 22.582 67.2266 22.625 67.0234 22.6953C66.6641 22.8281 66.4844 23.0703 66.4844 23.4219C66.4844 23.5781 66.5039 23.7305 66.543 23.8789C66.5898 24.0273 66.6562 24.2188 66.7422 24.4531L70.2109 33.4766L72.7656 26.7031L71.6289 23.8086C71.418 23.2773 71.1016 22.9219 70.6797 22.7422C70.4297 22.6328 70.0508 22.5742 69.543 22.5664V22.1211H75.9648V22.5664C75.3633 22.5742 74.9492 22.6172 74.7227 22.6953C74.3633 22.8281 74.1836 23.1016 74.1836 23.5156C74.1836 23.6562 74.1992 23.7812 74.2305 23.8906C74.2617 23.9922 74.3398 24.207 74.4648 24.5352L77.9336 33.5352L80.9336 25.3906C81.1055 24.9297 81.2227 24.5195 81.2852 24.1602C81.3242 23.957 81.3438 23.793 81.3438 23.668C81.3438 23.2227 81.1328 22.9141 80.7109 22.7422C80.4766 22.6406 80.125 22.582 79.6562 22.5664V22.1211H84.4141V22.5664C83.9844 22.6289 83.6562 22.7266 83.4297 22.8594C83.0234 23.0859 82.7188 23.4766 82.5156 24.0312L79.9609 31.168L78.9648 33.9219L77.5234 38.2812H77.1602L76.1875 35.5039L73.3281 28.1211L69.6367 38.2812H69.2734L67.5508 33.2891L65.4883 27.6758C64.6367 25.3633 64.043 23.9453 63.707 23.4219C63.3789 22.8906 62.8633 22.6055 62.1602 22.5664V22.1211H68.043ZM88.1523 30.0664C88.1523 32.5898 88.6484 34.457 89.6406 35.668C90.6328 36.8711 91.8516 37.4727 93.2969 37.4727C94.7109 37.4727 95.918 36.8867 96.918 35.7148C97.9258 34.5352 98.4297 32.6523 98.4297 30.0664C98.4297 27.4492 97.9219 25.5586 96.9062 24.3945C95.8906 23.2305 94.6875 22.6484 93.2969 22.6484C91.8594 22.6484 90.6406 23.2539 89.6406 24.4648C88.6484 25.668 88.1523 27.5352 88.1523 30.0664ZM85.4336 30.0664C85.4336 27.5039 86.2383 25.4492 87.8477 23.9023C89.3242 22.4883 91.1406 21.7812 93.2969 21.7812C95.4609 21.7812 97.2812 22.4922 98.7578 23.9141C100.359 25.4531 101.16 27.5039 101.16 30.0664C101.16 32.668 100.332 34.7383 98.6758 36.2773C97.1914 37.6523 95.3984 38.3398 93.2969 38.3398C91.0469 38.3398 89.1797 37.5781 87.6953 36.0547C86.1875 34.5 85.4336 32.5039 85.4336 30.0664ZM106.832 29.7852C108.559 29.7227 109.793 29.543 110.535 29.2461C111.809 28.7227 112.445 27.7383 112.445 26.293C112.445 24.9023 111.875 23.9531 110.734 23.4453C110.125 23.1719 109.316 23.0352 108.309 23.0352C107.629 23.0352 107.211 23.0859 107.055 23.1875C106.906 23.2812 106.832 23.5078 106.832 23.8672V29.7852ZM102.332 37.5664C103.254 37.4805 103.828 37.3008 104.055 37.0273C104.281 36.7539 104.395 36.1172 104.395 35.1172V24.7227C104.395 23.8789 104.266 23.3281 104.008 23.0703C103.758 22.8047 103.199 22.6367 102.332 22.5664V22.1211H108.977C110.359 22.1211 111.512 22.2969 112.434 22.6484C114.184 23.3125 115.059 24.5352 115.059 26.3164C115.059 27.5117 114.668 28.4297 113.887 29.0703C113.113 29.7109 112.059 30.1328 110.723 30.3359L115.668 36.418C115.973 36.793 116.277 37.0664 116.582 37.2383C116.887 37.4102 117.277 37.5195 117.754 37.5664V38H113.887L108.168 30.6172L106.832 30.6758V35.3984C106.832 36.2891 106.965 36.8555 107.23 37.0977C107.504 37.332 108.094 37.4883 109 37.5664V38H102.332V37.5664ZM118.504 37.5664C119.48 37.4883 120.086 37.3164 120.32 37.0508C120.555 36.7773 120.672 36.1328 120.672 35.1172V24.7227C120.672 23.8555 120.539 23.2969 120.273 23.0469C120.016 22.7891 119.426 22.6289 118.504 22.5664V22.1211H125.348V22.5664C124.41 22.6133 123.805 22.7695 123.531 23.0352C123.258 23.3008 123.121 23.8633 123.121 24.7227V29.6445C124.598 28.3867 125.805 27.3164 126.742 26.4336C128.422 24.832 129.262 23.8047 129.262 23.3516C129.262 23.0312 129.117 22.8203 128.828 22.7188C128.547 22.6172 128.145 22.5664 127.621 22.5664V22.1211H133.902V22.5078C133.137 22.5859 132.531 22.7383 132.086 22.9648C131.648 23.1914 131.039 23.6875 130.258 24.4531L125.699 28.918L131.289 34.9531C132.328 36.0703 133.035 36.7695 133.41 37.0508C133.785 37.3242 134.336 37.5039 135.062 37.5898V38H127.727V37.5664C128.391 37.543 128.84 37.4922 129.074 37.4141C129.309 37.3281 129.426 37.1641 129.426 36.9219C129.426 36.7891 129.348 36.5859 129.191 36.3125C129.043 36.0391 128.805 35.7227 128.477 35.3633L123.93 30.3711L123.121 31.0625V35.3984C123.121 36.2891 123.254 36.8555 123.52 37.0977C123.793 37.332 124.383 37.4883 125.289 37.5664V38H118.504V37.5664ZM136.961 33.1719C137.367 34.25 137.844 35.1094 138.391 35.75C139.344 36.8672 140.527 37.4258 141.941 37.4258C142.707 37.4258 143.367 37.1836 143.922 36.6992C144.484 36.2148 144.766 35.5391 144.766 34.6719C144.766 33.8906 144.484 33.2109 143.922 32.6328C143.555 32.2656 142.781 31.7148 141.602 30.9805L139.551 29.7031C138.934 29.3125 138.441 28.918 138.074 28.5195C137.395 27.7617 137.055 26.9258 137.055 26.0117C137.055 24.8008 137.457 23.793 138.262 22.9883C139.066 22.1836 140.133 21.7812 141.461 21.7812C142.008 21.7812 142.664 21.918 143.43 22.1914C144.203 22.457 144.645 22.5898 144.754 22.5898C145.051 22.5898 145.254 22.5195 145.363 22.3789C145.48 22.2383 145.57 22.0391 145.633 21.7812H146.125L146.652 26.8906H146.078C145.688 25.3516 145.059 24.2773 144.191 23.668C143.332 23.0586 142.48 22.7539 141.637 22.7539C140.98 22.7539 140.406 22.9492 139.914 23.3398C139.43 23.7227 139.188 24.2578 139.188 24.9453C139.188 25.5625 139.375 26.0898 139.75 26.5273C140.125 26.9727 140.707 27.4375 141.496 27.9219L143.605 29.2227C144.926 30.0352 145.855 30.7812 146.395 31.4609C146.926 32.1484 147.191 32.9609 147.191 33.8984C147.191 35.1562 146.715 36.207 145.762 37.0508C144.816 37.8945 143.605 38.3164 142.129 38.3164C141.387 38.3164 140.609 38.1758 139.797 37.8945C138.992 37.6133 138.531 37.4727 138.414 37.4727C138.133 37.4727 137.941 37.5586 137.84 37.7305C137.746 37.9023 137.684 38.0859 137.652 38.2812H137.125L136.41 33.1719H136.961Z" fill="white"/>
<path d="M62.3574 48.7832C62.8457 48.748 63.1621 48.6758 63.3066 48.5664C63.4512 48.4531 63.5234 48.1641 63.5234 47.6992V42.3613C63.5234 41.9199 63.4512 41.6367 63.3066 41.5117C63.1621 41.3828 62.8457 41.3066 62.3574 41.2832V41.0605H65.9082V41.2832C65.4199 41.3066 65.1035 41.3828 64.959 41.5117C64.8145 41.6367 64.7422 41.9199 64.7422 42.3613V47.6992C64.7422 48.1641 64.8145 48.4531 64.959 48.5664C65.1035 48.6758 65.4199 48.748 65.9082 48.7832V49H62.3574V48.7832ZM66.2949 48.7832C66.791 48.7324 67.1094 48.6211 67.25 48.4492C67.3906 48.2734 67.4609 47.8691 67.4609 47.2363V41.9453L67.2969 41.752C67.1211 41.5449 66.9707 41.418 66.8457 41.3711C66.7246 41.3203 66.541 41.291 66.2949 41.2832V41.0605H68.3516L72.9746 46.8379V42.8242C72.9746 42.1641 72.877 41.7344 72.6816 41.5352C72.5527 41.4062 72.2676 41.3223 71.8262 41.2832V41.0605H74.6445V41.2832C74.1875 41.3301 73.8828 41.4414 73.7305 41.6172C73.5781 41.793 73.502 42.1953 73.502 42.8242V49.1406H73.2969L67.9883 42.5605V47.2363C67.9883 47.8926 68.084 48.3203 68.2754 48.5195C68.4004 48.6484 68.6797 48.7363 69.1133 48.7832V49H66.2949V48.7832ZM79.2734 40.9199C79.707 40.9199 80.1523 40.9844 80.6094 41.1133C81.0664 41.2422 81.3223 41.3066 81.377 41.3066C81.4902 41.3066 81.5977 41.2754 81.6992 41.2129C81.8008 41.1504 81.8711 41.0527 81.9102 40.9199H82.1621L82.2734 43.6152H81.998C81.8379 43.0801 81.6289 42.6484 81.3711 42.3203C80.8789 41.7031 80.2168 41.3945 79.3848 41.3945C78.5449 41.3945 77.8574 41.7266 77.3223 42.3906C76.791 43.0547 76.5254 43.9688 76.5254 45.1328C76.5254 46.2031 76.8047 47.0586 77.3633 47.6992C77.9258 48.3359 78.6367 48.6543 79.4961 48.6543C80.1172 48.6543 80.6895 48.5059 81.2129 48.209C81.5137 48.041 81.8438 47.7871 82.2031 47.4473L82.4258 47.6699C82.1602 48.0059 81.8301 48.3008 81.4355 48.5547C80.7637 48.9844 80.0352 49.1992 79.25 49.1992C77.9609 49.1992 76.9375 48.7871 76.1797 47.9629C75.4805 47.2012 75.1309 46.25 75.1309 45.1094C75.1309 43.9414 75.5 42.9609 76.2383 42.168C77.0156 41.3359 78.0273 40.9199 79.2734 40.9199ZM84.793 49.1406C84.6055 49.1406 84.4473 49.0762 84.3184 48.9473C84.1895 48.8145 84.125 48.6562 84.125 48.4727C84.125 48.2891 84.1895 48.1328 84.3184 48.0039C84.4512 47.875 84.6094 47.8105 84.793 47.8105C84.9766 47.8105 85.1328 47.875 85.2617 48.0039C85.3906 48.1328 85.4551 48.2891 85.4551 48.4727C85.4551 48.6562 85.3906 48.8145 85.2617 48.9473C85.1367 49.0762 84.9805 49.1406 84.793 49.1406Z" fill="white"/>
</svg>
